<svg xmlns="http://www.w3.org/2000/svg" width="1518.104" height="1062.976" viewBox="0 0 1518.104 1062.976"><g id="Female_Quran_Teachers_and_tutors_Online_2" data-name="Female Quran Teachers and tutors Online 2" transform="translate(-275.657 -856.544)"><g id="Group_2222" data-name="Group 2222"><path id="Path_10160" data-name="Path 10160" d="M1318.021,1725.134c-17.01,17.938-10.7,40.455,34.455,55.126s73.367,38.479,133.652,68.049,79.356,36.432,106.505,52.24,35.941-12.286,45.683-47.4,49.475-75.453,68.012-138.657,32.565-61.31,33.4-83.337-43.187-18.69-67.3-30.518-43.262-28.7-103-51.767c-52.575-20.3-79.377-38.935-100-52.791-30.244-20.316-40.474,8.817-46.273,35.889s-31.752,36.78-59.256,105.558C1351.187,1669.32,1335.233,1706.984,1318.021,1725.134Z" fill="#f7d116"></path><path id="Path_10161" data-name="Path 10161" d="M1461.758,1524.685a4.135,4.135,0,1,0,1.742,5.455A4.049,4.049,0,0,0,1461.758,1524.685Zm37.236,18.263a4.135,4.135,0,1,0,1.742,5.457A4.051,4.051,0,0,0,1498.994,1542.948Zm37.238,18.267a4.135,4.135,0,1,0,1.741,5.454A4.049,4.049,0,0,0,1536.232,1561.215Zm37.234,18.262a4.135,4.135,0,1,0,1.743,5.457A4.051,4.051,0,0,0,1573.466,1579.477Zm145.307,80.477a4.135,4.135,0,1,0-1.74-5.455A4.049,4.049,0,0,0,1718.773,1659.954Zm-33.6-25.684a4.135,4.135,0,1,0,1.743,5.457A4.052,4.052,0,0,0,1685.176,1634.27Zm-37.236-18.264a4.135,4.135,0,1,0,1.742,5.457A4.053,4.053,0,0,0,1647.94,1616.006Zm-37.238-18.265a4.136,4.136,0,1,0,1.744,5.457A4.049,4.049,0,0,0,1610.7,1597.741Zm-183.993-51.476a4.136,4.136,0,1,0,1.741,5.458A4.053,4.053,0,0,0,1426.709,1546.265Zm37.236,18.265a4.136,4.136,0,1,0,1.742,5.456A4.051,4.051,0,0,0,1463.945,1564.53Zm37.238,18.265a4.136,4.136,0,1,0,1.74,5.457A4.051,4.051,0,0,0,1501.183,1582.8Zm37.234,18.264a4.135,4.135,0,1,0,1.741,5.457A4.051,4.051,0,0,0,1538.417,1601.059Zm148.944,73.057a4.135,4.135,0,1,0,1.743,5.457A4.05,4.05,0,0,0,1687.361,1674.116Zm-37.233-18.264a4.136,4.136,0,1,0,1.741,5.458A4.053,4.053,0,0,0,1650.128,1655.852Zm-37.237-18.265a4.136,4.136,0,1,0,1.743,5.458A4.052,4.052,0,0,0,1612.891,1637.587Zm-37.237-18.263a4.135,4.135,0,1,0,1.742,5.456A4.05,4.05,0,0,0,1575.654,1619.324ZM1431.1,1587.193a4.135,4.135,0,1,0,1.741,5.455A4.048,4.048,0,0,0,1431.1,1587.193Zm37.237,18.264a4.135,4.135,0,1,0,1.741,5.457A4.05,4.05,0,0,0,1468.335,1605.457Zm37.237,18.265a4.135,4.135,0,1,0,1.74,5.457A4.051,4.051,0,0,0,1505.572,1623.722Zm37.234,18.263a4.135,4.135,0,1,0,1.742,5.457A4.05,4.05,0,0,0,1542.806,1641.985Zm148.946,73.059a4.135,4.135,0,1,0,1.742,5.457A4.047,4.047,0,0,0,1691.752,1715.044Zm-37.235-18.266a4.135,4.135,0,1,0,1.742,5.459A4.051,4.051,0,0,0,1654.517,1696.778Zm-37.237-18.263a4.135,4.135,0,1,0,1.74,5.456A4.05,4.05,0,0,0,1617.28,1678.515Zm-37.238-18.266a4.135,4.135,0,1,0,1.743,5.458A4.049,4.049,0,0,0,1580.042,1660.249Zm-183.993-51.474a4.135,4.135,0,1,0,1.741,5.455A4.05,4.05,0,0,0,1396.049,1608.775Zm37.236,18.265a4.134,4.134,0,1,0,1.742,5.455A4.051,4.051,0,0,0,1433.285,1627.04Zm37.236,18.264a4.135,4.135,0,1,0,1.742,5.455A4.049,4.049,0,0,0,1470.521,1645.3Zm37.236,18.263a4.135,4.135,0,1,0,1.741,5.456A4.052,4.052,0,0,0,1507.757,1663.567Zm148.946,73.058a4.135,4.135,0,1,0,1.74,5.456A4.052,4.052,0,0,0,1656.7,1736.625Zm-37.235-18.264a4.135,4.135,0,1,0,1.741,5.456A4.052,4.052,0,0,0,1619.468,1718.361Zm-37.239-18.265a4.135,4.135,0,1,0,1.744,5.456A4.049,4.049,0,0,0,1582.229,1700.1Zm-37.236-18.263a4.134,4.134,0,1,0,1.742,5.455A4.049,4.049,0,0,0,1544.993,1681.833ZM1400.436,1649.7a4.135,4.135,0,1,0,1.743,5.456A4.049,4.049,0,0,0,1400.436,1649.7Zm37.238,18.264a4.136,4.136,0,1,0,1.742,5.456A4.05,4.05,0,0,0,1437.674,1667.966Zm37.238,18.264a4.136,4.136,0,1,0,1.739,5.457A4.054,4.054,0,0,0,1474.912,1686.23Zm37.232,18.265a4.135,4.135,0,1,0,1.743,5.456A4.048,4.048,0,0,0,1512.144,1704.495Zm148.947,73.058a4.136,4.136,0,1,0,1.742,5.457A4.048,4.048,0,0,0,1661.091,1777.553Zm-37.236-18.265a4.136,4.136,0,1,0,1.743,5.458A4.05,4.05,0,0,0,1623.855,1759.288Zm-37.235-18.265a4.136,4.136,0,1,0,1.741,5.457A4.053,4.053,0,0,0,1586.62,1741.023Zm-37.238-18.264a4.135,4.135,0,1,0,1.742,5.457A4.05,4.05,0,0,0,1549.382,1722.759Zm-183.995-51.474a4.134,4.134,0,1,0,1.743,5.456A4.049,4.049,0,0,0,1365.387,1671.285Zm37.237,18.265a4.135,4.135,0,1,0,1.741,5.455A4.051,4.051,0,0,0,1402.624,1689.55Zm37.236,18.263a4.134,4.134,0,1,0,1.742,5.456A4.052,4.052,0,0,0,1439.86,1707.813Zm37.236,18.264a4.135,4.135,0,1,0,1.741,5.457A4.052,4.052,0,0,0,1477.1,1726.077Zm148.945,73.058a4.135,4.135,0,1,0,1.741,5.457A4.053,4.053,0,0,0,1626.041,1799.135Zm-37.235-18.264a4.134,4.134,0,1,0,1.742,5.456A4.053,4.053,0,0,0,1588.806,1780.871Zm-37.238-18.265a4.134,4.134,0,1,0,1.743,5.456A4.051,4.051,0,0,0,1551.568,1762.606Zm-37.237-18.264a4.134,4.134,0,1,0,1.743,5.457A4.049,4.049,0,0,0,1514.331,1744.342Zm-144.554-32.131a4.135,4.135,0,1,0,1.742,5.455A4.05,4.05,0,0,0,1369.777,1712.211Zm37.236,18.264a4.135,4.135,0,1,0,1.743,5.456A4.05,4.05,0,0,0,1407.013,1730.475Zm37.237,18.264a4.135,4.135,0,1,0,1.742,5.456A4.051,4.051,0,0,0,1444.25,1748.739ZM1481.484,1767a4.135,4.135,0,1,0,1.743,5.456A4.049,4.049,0,0,0,1481.484,1767Zm148.946,73.057a4.135,4.135,0,1,0,1.743,5.457A4.052,4.052,0,0,0,1630.43,1840.061Zm-37.236-18.264a4.135,4.135,0,1,0,1.743,5.456A4.051,4.051,0,0,0,1593.194,1821.8Zm-37.235-18.265a4.136,4.136,0,1,0,1.741,5.456A4.051,4.051,0,0,0,1555.959,1803.532Zm-37.238-18.264a4.135,4.135,0,1,0,1.744,5.457A4.05,4.05,0,0,0,1518.721,1785.268Zm-183.993-51.477a4.136,4.136,0,1,0,1.742,5.458A4.052,4.052,0,0,0,1334.728,1733.791Zm37.236,18.266a4.136,4.136,0,1,0,1.741,5.456A4.053,4.053,0,0,0,1371.964,1752.057Zm37.237,18.263a4.136,4.136,0,1,0,1.741,5.457A4.052,4.052,0,0,0,1409.2,1770.32Zm37.234,18.264a4.136,4.136,0,1,0,1.743,5.457A4.049,4.049,0,0,0,1446.435,1788.584Zm148.947,73.058a4.136,4.136,0,1,0,1.742,5.458A4.053,4.053,0,0,0,1595.382,1861.642Zm-37.236-18.263a4.135,4.135,0,1,0,1.741,5.456A4.05,4.05,0,0,0,1558.146,1843.379Zm-37.238-18.266a4.136,4.136,0,1,0,1.743,5.458A4.051,4.051,0,0,0,1520.908,1825.113Zm-37.235-18.263a4.135,4.135,0,1,0,1.741,5.457A4.053,4.053,0,0,0,1483.673,1806.85Z" fill="#754026"></path></g><g id="Group_2223" data-name="Group 2223"><path id="Path_10162" data-name="Path 10162" d="M440.389,1843c15.182,21.511,22.22,39.751,58.994,5.044s73.43-48.91,131.853-90.147,74.575-55.553,103.215-72.849,6.874-39.864-20.961-66.9-45.243-84.77-94.842-134.373-40.663-61.746-60.823-73.774-39.522,30.812-62.891,47.307-48.915,25.771-100.981,69.814c-45.823,38.762-76.925,54.294-100.408,66.492-34.434,17.888-12.431,42.326,9.906,61.573s18.154,48.456,68.382,109.285C395.051,1792.588,430.767,1829.366,440.389,1843Z" fill="#f7d116"></path><path id="Path_10163" data-name="Path 10163" d="M585.716,1787.891q3.529-2.19,7.178-4.489L405.352,1517.69c-2.142,1.734-4.315,3.507-6.556,5.371Zm75.7-51.573q3.552-2.572,6.84-4.968l-187.109-265.1c-2.356,1.434-4.774,2.876-7.27,4.358ZM431.138,1497.991l188.914,267.655q3.425-2.331,6.96-4.8L438.055,1493.134Q434.7,1495.444,431.138,1497.991Zm111.423,316.693q3.516-2.292,7.12-4.571L365.768,1549.544q-3.482,2.588-6.828,4.983Zm16.643-10.509c5.452-3.364,11.09-6.8,16.957-10.392l-185.981-263.5c-5.366,4.471-10.523,8.611-15.489,12.471Zm-16.109-394.323L736.429,1683.77a34.374,34.374,0,0,0,6.49-5.462L552.128,1407.993A15.923,15.923,0,0,0,543.095,1409.852Zm93.08,344.552c5.8-4.112,11.164-7.943,16.155-11.529L464.223,1476.363c-5.191,3.119-10.767,6.556-16.86,10.531ZM486.024,1859.319a136.433,136.433,0,0,0,13.359-11.277c.6-.565,1.2-1.111,1.8-1.666L314.833,1582.357c-6.349,3.5-12.211,6.549-17.671,9.38Zm-18.332,8.115a24.156,24.156,0,0,0,8.7-2.336L287.377,1597.3a35.223,35.223,0,0,0-6.419,5.564Zm242.7-166.7c5.513-3.85,10.846-7.432,16.512-11.024L534.023,1416.43a170.223,170.223,0,0,0-13.758,14.925ZM509.612,1838.893c2.176-1.846,4.361-3.63,6.555-5.375L331.91,1572.462q-3.74,2.281-7.282,4.344Zm184.812-126.7c2.363-1.725,4.634-3.377,6.841-4.966L512.758,1440.149c-1.918,2.2-3.856,4.352-5.817,6.416Z" fill="#e49514"></path></g><g id="Group_2272" data-name="Group 2272"><g id="Group_2246" data-name="Group 2246"><g id="Group_2231" data-name="Group 2231"><g id="Group_2224" data-name="Group 2224"><path id="Path_10164" data-name="Path 10164" d="M1170.593,1522.488c-1.769,1.266-11.8,8.383-13.289,9.695s-8.077,7.723-10.049,9.381c-11.68,9.8-20.352,5.911-10.781-2.784,7.628-6.931,15.722-16.794,30.905-27.656s50.785-21.081,50.785-21.081l29.772-24.038,11.458,28.1L1233.6,1517.57c-13.978,19.459-35.841,28.21-35.841,28.21Z" fill="#f79c92"></path></g><g id="Group_2228" data-name="Group 2228"><path id="Path_10165" data-name="Path 10165" d="M1170.6,1520.077s-5.4,14.273-6.175,16.995a17.92,17.92,0,0,0-.935,7.035c.138,3.039,2.287,15.893,2.72,17.488s1.566,4.905,5.135,3.531c-.2,4.443,1.978,5.107,4.132,5.191s4.485-2.939,5.63-5.321,2.7-10.166,2.839-12.495a31.693,31.693,0,0,0-.246-5.411l3.474-2.444a70.207,70.207,0,0,0-.765,10.791c.016,1.809,2.373,6.348,5.065,12.855,1.14,2.755,5.814,2.541,6.227-.206.65-4.31-3.571-11.979-4.018-12.9,2.582-6.21,4.775-11.726,4.775-11.726Z" fill="#f79c92"></path><g id="Group_2227" data-name="Group 2227"><g id="Group_2225" data-name="Group 2225"><path id="Path_10166" data-name="Path 10166" d="M1169.659,1565.133a.81.81,0,0,1,.72-.887h0a2.453,2.453,0,0,0,2.016-1.546h0c1.021-2.249,1.206-6.632,1.008-10.651h0c-.221-4.9-.918-9.328-.918-9.338h0l-.037-.229,4.631-10.814a.8.8,0,0,1,1.056-.424h0a.8.8,0,0,1,.424,1.056h0l-4.448,10.393c.147.982.7,4.936.906,9.284h0c.171,4.132.078,8.571-1.149,11.378h0a4.076,4.076,0,0,1-3.32,2.494h0a.175.175,0,0,1-.046.005h0a.814.814,0,0,1-.842-.722Z" fill="#e2695d"></path></g><g id="Group_2226" data-name="Group 2226"><path id="Path_10167" data-name="Path 10167" d="M1177.259,1569.589a.805.805,0,0,1,.128-1.133h0c3.489-2.766,5.408-7.923,5.862-21.545h0l0,0a.8.8,0,0,1,.83-.773h0a.8.8,0,0,1,.779.828h0c-.461,13.668-2.347,19.434-6.468,22.752h0a.808.808,0,0,1-.467.176h0a.8.8,0,0,1-.666-.3Z" fill="#e2695d"></path></g></g></g><path id="Path_10168" data-name="Path 10168" d="M1168.157,1465.1a4.677,4.677,0,0,1,8.975,1.793L1153.9,1583.083s-5.643,11.84-6.98,11.57-2-13.364-2-13.364Z" fill="#9e5959"></path><g id="Group_2230" data-name="Group 2230"><path id="Path_10169" data-name="Path 10169" d="M1184.72,1508.752s-26.883,24.243-32.09,27.539,2.9,14.715,27.1-4.823c11,7.182,31.433,3.512,35.24-9.632,0,0,4.725-11.609-6.86-14.973S1189.367,1504.455,1184.72,1508.752Z" fill="#f79c92"></path><g id="Group_2229" data-name="Group 2229"><path id="Path_10170" data-name="Path 10170" d="M1150.575,1537.483a4.041,4.041,0,0,1,1.623-1.875h0c2.467-1.552,10.55-8.473,17.9-14.928h0c7.366-6.471,14.067-12.517,14.085-12.528h0a.8.8,0,0,1,1.137.06h0a.807.807,0,0,1-.059,1.137h0c-.036.026-26.814,24.2-32.2,27.62h0a2.425,2.425,0,0,0-.993,1.125h0c-.4,1.022.016,2.353,1.971,3.19h0c3.42,1.446,11.741.433,25.181-10.446h0l.456-.367.49.319a18.961,18.961,0,0,0,3.264,1.694h0a27.836,27.836,0,0,0,17.576.7h0c5.762-1.644,10.64-5.107,12.7-10.177h0c.183-.451.348-.922.488-1.4h0a.809.809,0,0,1,1-.548h0a.807.807,0,0,1,.546,1h0a16.185,16.185,0,0,1-.543,1.553h0c-4.709,11.321-21.139,14.891-32.374,10.36h0a20.7,20.7,0,0,1-3.039-1.526h0c-13.388,10.662-21.926,12.072-26.352,10.326h0c-2.522-1.033-3.654-3.318-2.855-5.294Z" fill="#e2695d"></path></g></g></g><path id="Path_10171" data-name="Path 10171" d="M1224.991,1479.1l26,39s105-80,126-101c18.111-18.111,26-49,28-76s18-149,21-168-54-56-59-16c-3.527,28.223-25,185-29,204C1315.991,1378.1,1224.991,1479.1,1224.991,1479.1Z" fill="#b6dde9"></path><g id="Group_2233" data-name="Group 2233"><path id="Path_10172" data-name="Path 10172" d="M1619.99,1652.1l-28.666-30.667,48.3-42.182s31.416,13.6,49.7,26.849C1655.136,1624.182,1619.99,1652.1,1619.99,1652.1Z" fill="#f79c92"></path><path id="Path_10173" data-name="Path 10173" d="M1632.37,1593.126s15.172-42.728,17.048-50.379,12.387-17.778,35.729-6.425c17.616,8.57,41.8,8.435,63.335,13.678,6.776,1.65,12.239,2.294,18.27,4.948,2.378,1.048,4.183,4.027,4.838,6.011a11.589,11.589,0,0,1,9.225,7.512c6.779,2.066,6,6.926,4.454,8.687,4.471,3.406,4.513,6.256,3.1,9.464,5.635,4.108,4.477,11.343,1,13.832-5.7.086-16.953-3.5-21.82-4.183-30.418-4.259-86.661,11.68-94.406,19.014Z" fill="#f79c92"></path><g id="Group_2232" data-name="Group 2232"><path id="Path_10174" data-name="Path 10174" d="M1766.359,1595.811s12.325,2.269,16.7,3.865c10.469,3.821,13.12-8.163,4.634-13.125" fill="none" stroke="#e2695d" stroke-linecap="round" stroke-width="2"></path><path id="Path_10175" data-name="Path 10175" d="M1764.129,1586.776s10.472,2.666,14.181,1.979,10.806-1.528,11.137-3.892-1.164-6.558-4.9-7.349" fill="none" stroke="#e2695d" stroke-linecap="round" stroke-width="2"></path><path id="Path_10176" data-name="Path 10176" d="M1763.615,1579.144s8.73.7,12.115.547,8.5-2.553,9.953-3.141,1.2-7.144-5.19-8.076" fill="none" stroke="#e2695d" stroke-linecap="round" stroke-width="2"></path><path id="Path_10177" data-name="Path 10177" d="M1760.9,1570.914s9.941.513,12.791.037,7.956-1.048,5.871-4.872-7.024-5.34-8.582-5.185" fill="none" stroke="#e2695d" stroke-linecap="round" stroke-width="2"></path><path id="Path_10178" data-name="Path 10178" d="M1757.539,1561.93s8.111.508,10.1.244,5-1,2.163-4.184-5.147-4.206-9.282-5.241-10.26-1.8-10.26-1.8" fill="none" stroke="#e2695d" stroke-linecap="round" stroke-width="2"></path></g></g><path id="Path_10179" data-name="Path 10179" d="M1301.991,1560.1s-64,66-74,98-6,84,20,106,192,28,232,24,104-55.333,134-81.333,58-51.333,58-51.333-8-89.334-30-129.334C1585.991,1518.1,1301.991,1560.1,1301.991,1560.1Z" fill="#5c331f"></path><path id="Path_10180" data-name="Path 10180" d="M1395.479,1135.44c18.3-8.157,44.17-23.122,44.17-23.122l43.483-7.44,49.28-5.41,73.94,19.214s22.606,99.381,19.639,185.423c-2,58-14,84-14,84l-186,14s-11.633-40.695-19.328-58.963S1389.152,1286.128,1387,1267C1384.515,1244.911,1389.534,1195.054,1395.479,1135.44Z" fill="#cae4ea"></path><path id="Path_10181" data-name="Path 10181" d="M1425.991,1384.1s-18,56-20,84c-80,56-118,104-118,104s216,2,252,22,32,54,32,54,48-28,78-96-34-208-34-208Z" fill="#cae4ea"></path><g id="Group_2237" data-name="Group 2237"><path id="Path_10182" data-name="Path 10182" d="M1549.315,1548.158c-5.618,10.333-18.352,16.786-32.876,11.928-9.795-3.277-21.438-6.214-30.178-9.525-9,1.787-17.266,5.194-19.506,6.63a49.947,49.947,0,0,0-14.153,12.949c-3.853,4.92-7.9,4.3-8.447.054a73.2,73.2,0,0,1-5.066,6.847c-2.318,2.328-7.547.015-5.811-4.63-4.056,3.489-9.3-1.148-6.984-5.218.477-.831,1.185-2.088,2.039-3.6-3.047,1.724-7.727-2.2-2.314-10.286,1.1-1.648,8.582-14.81,10.69-16.413,5.371-4.087,13.58-10.941,19.427-12.433,8.582-2.192,20.449-1.323,32.411-.111,15.518,1.564,30.324,5.355,32.159,4.978,5.491-1.109,18.876-14.986,18.876-14.986l23.826,17.585S1555.354,1537.033,1549.315,1548.158Z" fill="#f79c92"></path><g id="Group_2234" data-name="Group 2234"><path id="Path_10183" data-name="Path 10183" d="M1463.136,1536.4c-.042.035-16.547,12.353-19.253,15.513h0c-2.684,3.189-11.269,20.095-11.3,20.141h0a.783.783,0,0,0,.341,1.046h0a.772.772,0,0,0,1.043-.341h0c.01-.008,2.168-4.248,4.647-8.867h0c2.468-4.6,5.31-9.643,6.454-10.969h0c1.123-1.342,5.944-5.248,10.4-8.7h0c4.458-3.475,8.59-6.571,8.6-6.58h0a.782.782,0,0,0,.156-1.089h0a.76.76,0,0,0-.389-.275h0a.743.743,0,0,0-.7.121Z" fill="#e2695d"></path></g><g id="Group_2235" data-name="Group 2235"><path id="Path_10184" data-name="Path 10184" d="M1473.8,1541.692c-.059.05-16.639,8.284-19.731,11.553h0c-2.936,3.2-10.564,16.524-10.592,16.557h0a.785.785,0,0,0,.288,1.068h0a.783.783,0,0,0,1.062-.294h0c0-.006,1.921-3.343,4.192-7.058h0a80.236,80.236,0,0,1,6.187-9.21h0c1.18-1.3,6.111-4.233,10.6-6.668h0c4.515-2.463,8.674-4.55,8.68-4.553h0a.786.786,0,0,0,.355-1.043h0a.783.783,0,0,0-.466-.4h0a.771.771,0,0,0-.58.046Z" fill="#e2695d"></path></g><g id="Group_2236" data-name="Group 2236"><path id="Path_10185" data-name="Path 10185" d="M1455.72,1530.939c-2.942,1.828-13.453,9.613-16.36,13.239h0c-4.25,5.372-11.691,19.031-11.707,19.048h0a.766.766,0,0,0,.308,1.048h0a.781.781,0,0,0,1.06-.3h0c.009-.019,7.482-13.7,11.564-18.831h0c2.517-3.226,13.228-11.216,15.953-12.878h0a.785.785,0,0,0,.258-1.068h0a.8.8,0,0,0-.43-.334h0a.768.768,0,0,0-.646.078Z" fill="#e2695d"></path></g></g><path id="Path_10186" data-name="Path 10186" d="M1570.991,1183.1c-5.643-25.083,43-79,68-28,22.061,45,48,141,56,169s22,65-3,97c-11.616,14.87-135,132-135,132l-34-35s104-129,119-145C1616.991,1330.1,1579.991,1223.1,1570.991,1183.1Z" fill="#b6dde9"></path><g id="Group_2245" data-name="Group 2245"><g id="Group_2241" data-name="Group 2241"><path id="Path_10187" data-name="Path 10187" d="M1574.952,949.914c-16.083-53.084-39.849-92.956-93.387-93.368-28.364-.218-62.465,19.556-77.781,58.564-17.2,43.8-10.765,96.28-10.046,113.065,2.648,61.689,13.005,85.793,32.8,103.96s112.4-16.7,140.95-34.387C1600.462,1077.319,1591.037,1003,1574.952,949.914Z" fill="#e1f0f4"></path><path id="Path_10188" data-name="Path 10188" d="M1584.782,1077.384s-7.426,4.589-33.195,21.317-102.4,25.517-120.436,22.338-17.368-17.913-23.294-17.895c-18.165.052-17.789,22.489-24.36,25.026-8.951,3.455-12.717,10.3-12.937,16.057s27.974,62.5,101.193,59.361,127.639-35.147,151.238-54.483c23.2-19.011-7.279-31.839-14-38S1592.287,1075.153,1584.782,1077.384Z" fill="#e1f0f4"></path><g id="Group_2240" data-name="Group 2240"><path id="Path_10189" data-name="Path 10189" d="M1408.355,983.585c.972,22.647,7.408,41.659,11.015,53.48,2.047,6.691,11.2,19.686,18.532,25.365,8.463,6.561,18.107,15.573,29.556,15.628,16.334.078,26.094-9.454,37.377-17.955,14.185-10.682,23.57-22.265,26.3-34.919,7.346-34.081,8.514-131.711-68.3-131.137C1420.275,894.363,1406.684,944.631,1408.355,983.585Z" fill="#f79c92"></path><path id="Path_10190" data-name="Path 10190" d="M1449.671,1033.04c1.468-3.529,5.3,1.043,13.846.861,8.949-.191,17.3-6.843,19.447-3.639,1.428,2.121-2.528,15.415-17.779,16.415C1455.009,1047.346,1448.379,1036.148,1449.671,1033.04Z" fill="#fff"></path><path id="Path_10191" data-name="Path 10191" d="M1488.922,989.521c.127,2.945-1.59,5.418-3.828,5.514s-4.162-2.22-4.289-5.166,1.588-5.423,3.83-5.519S1488.8,986.566,1488.922,989.521Z" fill="#231f20"></path><path id="Path_10192" data-name="Path 10192" d="M1505.466,967.482c-2.3,1.788-9.628-1.5-24.86,2.1-5.543,1.306-6.879-5.332-.279-6.529C1493.917,960.593,1507.768,965.683,1505.466,967.482Z" fill="#541c1c"></path><path id="Path_10193" data-name="Path 10193" d="M1421.631,992.408c.126,2.946,2.041,5.263,4.285,5.166s3.953-2.568,3.826-5.513-2.047-5.267-4.285-5.171S1421.5,989.455,1421.631,992.408Z" fill="#231f20"></path><path id="Path_10194" data-name="Path 10194" d="M1417.471,971.567c2.495,1.5,2.832-1.479,18.382.261,5.654.635,5.894-6.2-.792-6.6C1421.269,964.413,1414.972,970.066,1417.471,971.567Z" fill="#541c1c"></path><g id="Group_2239" data-name="Group 2239"><g id="Group_2238" data-name="Group 2238"><path id="Path_10195" data-name="Path 10195" d="M1454.645,1022.343c-.046-.18-7.015-3.522-7.541-9.6h0a7.366,7.366,0,0,1,2.162-5.372h0c1.6-1.532,2.857-7.882,3.223-13.477h0c.444-5.643.348-10.709.348-10.713h0a1.635,1.635,0,0,1,1.6-1.665h0a1.625,1.625,0,0,1,1.661,1.6h0c0,.035.1,5.206-.359,11.036h0c-.54,5.868-1.277,12.188-4.068,15.428h0a4.167,4.167,0,0,0-1.316,3.024h0c.024,1.524,1.359,3.356,2.892,4.706h0a18.676,18.676,0,0,0,2.986,2.177h0a1.639,1.639,0,0,1,.636,2.223h0a1.65,1.65,0,0,1-1.36.836h0a1.656,1.656,0,0,1-.868-.2Z" fill="#e2695d"></path></g><path id="Path_10196" data-name="Path 10196" d="M1459.757,1014.829c-.16-.678,5.715-2.931,5.959-1.038C1465.924,1015.415,1459.92,1015.5,1459.757,1014.829Z" fill="#e2695d"></path></g><path id="Path_10197" data-name="Path 10197" d="M1447.31,930.321c35.009-1.5,66.751,14.574,87.2,46.385,1.945-34.953-20.22-94.314-78.849-88.89-52.127,4.825-47.4,86.358-47.4,86.358S1415.86,931.67,1447.31,930.321Z" fill="#217abf"></path></g></g><g id="Group_2242" data-name="Group 2242"><path id="Path_10198" data-name="Path 10198" d="M1465.365,1157.59a1.633,1.633,0,0,1,1.562-1.7h0c14.656-.573,69.664-16.321,96.858-30.172h0a98.891,98.891,0,0,0,18.044-11.321h0c3.54-2.823,5.153-5.418,5.3-6.1h0a3.223,3.223,0,0,0-.986-.076h0c-2.438.068-7.886,1.927-15.6,6.342h0c-26.406,15.013-69.329,33.627-114.358,40.684h0a93.3,93.3,0,0,1-10.483,1.058h0c-38.129,1.635-54.417-22.806-54.539-23.031h0l0,.006a1.634,1.634,0,0,1,.459-2.263h0a1.634,1.634,0,0,1,2.267.459h0a32.839,32.839,0,0,0,2.882,3.5h0a52.855,52.855,0,0,0,9.214,7.8h0c8.373,5.6,21.266,11.053,39.573,10.267h0a92.043,92.043,0,0,0,10.12-1.017h0c44.469-6.96,87.153-25.447,113.247-40.3h0c7.983-4.52,13.506-6.585,17.07-6.769h0a5.246,5.246,0,0,1,2.846.542h0a2.982,2.982,0,0,1,1.534,2.505h0c-.08,2.868-2.368,5.352-6.458,8.9h0a101.743,101.743,0,0,1-18.656,11.732h0c-27.929,14.121-82.384,29.787-98.2,30.521h0a1.635,1.635,0,0,1-1.7-1.562Z" fill="#99bec1"></path></g><g id="Group_2243" data-name="Group 2243"><path id="Path_10199" data-name="Path 10199" d="M1409.415,1102.6a1.639,1.639,0,0,1,.613-2.225h0a1.638,1.638,0,0,1,2.227.612h0a44.151,44.151,0,0,0,2.82,4.14h0a61.28,61.28,0,0,0,8.521,9.156h0c7.572,6.6,18.736,12.966,33.535,12.333h0a52.077,52.077,0,0,0,8.93-1.188h0c36.254-7.966,93.327-38.122,101.4-44.072h0a1.637,1.637,0,0,1,2.283.36h0a1.633,1.633,0,0,1-.36,2.282h0c-8.834,6.4-65.445,36.355-102.62,44.62h0a55.359,55.359,0,0,1-9.5,1.26h0c-31.794,1.268-47.758-27.163-47.855-27.278Z" fill="#99bec1"></path></g><g id="Group_2244" data-name="Group 2244"><path id="Path_10200" data-name="Path 10200" d="M1448.112,1093.827a1.636,1.636,0,0,1-1.536-1.723h0a1.64,1.64,0,0,1,1.731-1.544h0a87.47,87.47,0,0,0,8.87.088h0c41.238-1.741,61.452-34.094,69.043-50.307h0a76.318,76.318,0,0,0,3.588-8.875h0a1.626,1.626,0,0,1,2.036-1.076h0a1.634,1.634,0,0,1,1.085,2.04h0c-.057.1-18.075,58.881-75.615,61.48h0a90.539,90.539,0,0,1-9.2-.083Z" fill="#99bec1"></path></g></g></g><g id="Group_2269" data-name="Group 2269"><g id="Group_2250" data-name="Group 2250"><path id="Path_10201" data-name="Path 10201" d="M737.126,1562.57l-9.772-12.641-19.04,14.193,19.843,27.439s18.445,7.146,26.711,8.276,19.237-3.619,23.11-6.334a48.085,48.085,0,0,1,12.79-5.669c2.392-.589-.919-6.571-6.751-5.138s-16.8,5.345-20.794,3.535c12.541-4.477,19.868-8.054,24.587-7.438a143.655,143.655,0,0,1,19.012,4.831c5.63,2.245,5.872-4.306,2.962-6.076-3.586-2.18-5.04-3.046-5.04-3.046a88.709,88.709,0,0,0-6.484-7.795c-.441-2.471-2.734-4.848-5.828-7.194-1.755-3.52-8.46-6.886-12.043-7.7-4.371-.99-16.382-1.662-24.491,1.7C739.471,1560.324,734.945,1562.166,737.126,1562.57Z" fill="#f79c92"></path><g id="Group_2247" data-name="Group 2247"><path id="Path_10202" data-name="Path 10202" d="M804.988,1573.8c-.057-.007-13.512-4.769-17.155-5.008h0c-3.6-.188-18.3,2.451-18.35,2.449h0a.74.74,0,0,0-.6.856h0a.738.738,0,0,0,.857.6h0c.006,0,3.7-.657,7.817-1.287h0a76.805,76.805,0,0,1,10.189-1.14h0c1.463.07,5.766,1.308,9.55,2.52h0c3.807,1.215,7.192,2.4,7.2,2.405h0a.738.738,0,0,0,.942-.454h0a.725.725,0,0,0,.02-.419h0a.738.738,0,0,0-.474-.521Z" fill="#e2695d"></path></g><g id="Group_2248" data-name="Group 2248"><path id="Path_10203" data-name="Path 10203" d="M798.448,1566.163c-.059-.016-7.661-5.514-12.74-6.216h0c-4.968-.629-16.847,1.318-16.89,1.313h0a.739.739,0,0,0-.612.849h0a.736.736,0,0,0,.845.61h0c.007,0,2.975-.478,6.537-.881h0a51.1,51.1,0,0,1,9.93-.424h0c2.149.27,5.231,1.753,7.7,3.181h0c2.479,1.424,4.371,2.768,4.373,2.773h0a.737.737,0,0,0,1.03-.176h0a.736.736,0,0,0,.115-.6h0a.738.738,0,0,0-.291-.426Z" fill="#e2695d"></path></g><g id="Group_2249" data-name="Group 2249"><path id="Path_10204" data-name="Path 10204" d="M792.692,1558.678c-.075-.005-9.58-4.32-13.282-4.319h0c-3.325.051-12.576.551-12.582.55h0a.742.742,0,0,0-.7.778h0a.738.738,0,0,0,.778.7h0c.011,0,9.27-.5,12.523-.548h0c1.371-.041,4.662,1,7.446,2.062h0c2.811,1.061,5.209,2.126,5.215,2.129h0a.739.739,0,0,0,.972-.375h0a.722.722,0,0,0,.044-.478h0a.732.732,0,0,0-.418-.5Z" fill="#e2695d"></path></g></g><path id="Path_10205" data-name="Path 10205" d="M610.1,1250.21c8.187,16.376,34.5,136.493,39,163.492,22.894,33.07,88.394,136.653,88.394,136.653l-30.5,22S624.658,1477.439,605.6,1436.2c-22.558-48.807-24-140.992-27-158.992S596.6,1223.211,610.1,1250.21Z" fill="#1fa6bd"></path><path id="Path_10206" data-name="Path 10206" d="M410.206,1251.252s-9.12,88.963-9.969,173.141c-.723,71.791,6.61,139.6,8.535,151.259,31.673,3.033,191.561-23.985,191.561-23.985l3.658-299.562Z" fill="#1fa6bd"></path><g id="Group_2252" data-name="Group 2252"><path id="Path_10207" data-name="Path 10207" d="M440.7,1686.953l6.448-41.861L421.94,1628.33s-25.087,12.271-39.482,23.764C411,1665.529,440.7,1686.953,440.7,1686.953Z" fill="#f79c92"></path><path id="Path_10208" data-name="Path 10208" d="M428.379,1639.358s-13.982-34.244-15.8-40.408-10.768-14.018-29.36-3.882c-14.03,7.652-33.746,8.457-51.094,13.546-5.459,1.6-9.887,2.333-14.7,4.725-1.9.944-3.256,3.439-3.715,5.082a9.451,9.451,0,0,0-7.232,6.471c-5.447,1.94-4.627,5.873-3.3,7.248-3.515,2.945-3.441,5.268-2.172,7.83-4.437,3.561-3.218,9.413-.288,11.309,4.646-.145,13.683-3.5,17.624-4.235,24.626-4.624,71.064,6.234,77.652,11.917Z" fill="#f79c92"></path><g id="Group_2251" data-name="Group 2251"><path id="Path_10209" data-name="Path 10209" d="M319.292,1646.623s-9.958,2.317-13.464,3.783c-8.387,3.511-11-6.155-4.274-10.52" fill="none" stroke="#e2695d" stroke-linecap="round" stroke-width="2"></path><path id="Path_10210" data-name="Path 10210" d="M320.767,1639.177s-8.433,2.569-11.482,2.15-8.864-.837-9.223-2.75.7-5.389,3.711-6.175" fill="none" stroke="#e2695d" stroke-linecap="round" stroke-width="2"></path><path id="Path_10211" data-name="Path 10211" d="M320.895,1632.936s-7.086.9-9.851.907-7.024-1.759-8.229-2.183-1.25-5.776,3.923-6.777" fill="none" stroke="#e2695d" stroke-linecap="round" stroke-width="2"></path><path id="Path_10212" data-name="Path 10212" d="M322.8,1626.128s-8.081.794-10.421.515-6.523-.552-4.97-3.749a8.932,8.932,0,0,1,6.8-4.549" fill="none" stroke="#e2695d" stroke-linecap="round" stroke-width="2"></path><path id="Path_10213" data-name="Path 10213" d="M325.2,1618.679s-6.59.722-8.222.582-4.113-.629-1.922-3.327,4.035-3.623,7.366-4.623,8.292-1.86,8.292-1.86" fill="none" stroke="#e2695d" stroke-linecap="round" stroke-width="2"></path></g></g><path id="Path_10214" data-name="Path 10214" d="M680.609,1584.147s54.656,51.36,64.017,77.058,8.072,68.226-12.282,87.139-155.4,30.092-188.151,28.347-71.1-25.366-96.531-45.417-49.209-39.634-49.209-39.634,3.134-73.1,19.546-106.533C463.332,1576.466,680.609,1584.147,680.609,1584.147Z" fill="#5c331f"></path><path id="Path_10215" data-name="Path 10215" d="M588.641,1461.2s1.04,29.168,3.731,51.91c67.315,42.6,100.1,80.28,100.1,80.28s-175.946,9.814-204.525,27.477-24.031,45.218-24.031,45.218-24.428-5.214-51.451-59.491,19.826-170.791,19.826-170.791Z" fill="#1fa6bd"></path><g id="Group_2255" data-name="Group 2255"><path id="Path_10216" data-name="Path 10216" d="M594.623,1472.212l-34.047-2.978-10.763,31.549s22.35.832,31.892-.744c3.706,14.291,19.743,29.8,24.74,31.184-.015,6.7-.3,10.381-.3,10.381s-4.942-1.046-8.657-.085c-3.572.928-8.782,5.9-1.133,6.436,7.111.485,18.024,4.654,19.39-5.255a10.985,10.985,0,0,0,10.716-6.922c4.177-.979,7.479-1.639,9.043-6.528,1.526-4.766,1.576-12.445,1.576-12.445,6.651,7.193,24.756,26.786,28.484,30.1,3.148,2.8,13.049,5.636,8.891-.145-5.874-8.167-13.243-17.905-17.711-23.906a330.009,330.009,0,0,0-21.953-26.314C628.838,1489.985,594.623,1472.212,594.623,1472.212Z" fill="#f79c92"></path><g id="Group_2253" data-name="Group 2253"><path id="Path_10217" data-name="Path 10217" d="M625.8,1535.05a18.348,18.348,0,0,0,1.015-5.995h0a30.947,30.947,0,0,0-.064-3.4h0a.7.7,0,0,1,.641-.758h0a.7.7,0,0,1,.756.641h0c-.012.043.55,6.093-1.051,10.044h0a.707.707,0,0,1-.92.385h0a.734.734,0,0,1-.326-.282h0a.7.7,0,0,1-.051-.634Z" fill="#e2695d"></path></g><g id="Group_2254" data-name="Group 2254"><path id="Path_10218" data-name="Path 10218" d="M615.435,1541.816a18.569,18.569,0,0,0,.942-7.11h0a37.588,37.588,0,0,0-.323-4.162h0v.006a.69.69,0,0,1,.585-.8h0a.7.7,0,0,1,.8.584h0c-.01.057,1.159,7.493-.708,12.024h0a.7.7,0,0,1-.915.371h0a.663.663,0,0,1-.323-.277h0a.712.712,0,0,1-.056-.64Z" fill="#e2695d"></path></g></g><path id="Path_10219" data-name="Path 10219" d="M401.841,1500.182c-13.6-3.331-25.916-10.52-27.85-33.077-3-35,3-163,22-208,9.081-21.506,52-19,53,37,.109,6.095.111,12.415.022,18.861" fill="#1fa6bd"></path><path id="Path_10220" data-name="Path 10220" d="M448.9,1321.043c-1.137,51.288-7.627,108.349-11.913,122.062,29,2,138,22,138,22l-9,44s-123-1-142-5c-6.605-1.39-14.3-2.055-21.65-3.8" fill="#1fa6bd"></path><g id="Group_2264" data-name="Group 2264"><g id="Group_2260" data-name="Group 2260"><path id="Path_10221" data-name="Path 10221" d="M439.679,1061.867c11.784-45.854,45.146-64.848,71.212-66,33.591-1.481,64.279,18.05,81.245,53.65,19.5,40.925,3.085,171.783-29.079,189.243-21.633,11.745-65.936,33.123-119.809-36.637C430.593,1185.738,427.894,1107.721,439.679,1061.867Z" fill="#217abf"></path><g id="Group_2256" data-name="Group 2256"><path id="Path_10222" data-name="Path 10222" d="M492.424,1189.113a165.8,165.8,0,0,1-18.366-24.1h0a1.771,1.771,0,0,1,.6-2.431h0a1.774,1.774,0,0,1,2.434.6h0s.427.714,1.258,2h0c.831,1.286,2.057,3.127,3.622,5.336h0a163.788,163.788,0,0,0,13.049,16.19h0c10.842,11.792,25.458,23.276,39.814,23.137h0a26.813,26.813,0,0,0,6.411-.806h0c18.222-4.56,34.486-19.28,38.165-22.849h0c.524-.506.786-.773.786-.773h0a1.77,1.77,0,0,1,2.506-.028h0a1.773,1.773,0,0,1,.026,2.507h0c-.118.081-18.446,18.948-40.624,24.583h0a30.372,30.372,0,0,1-7.255.91h0c-16.276.007-31.3-12.27-42.433-24.274Z" fill="#25669d"></path></g><path id="Path_10223" data-name="Path 10223" d="M488.461,1148.7c7.774,29.952,31.8,45.622,57.125,45.5,12.782-.061,33.332-5.394,44.328-43.682,5.186-18.052,4.2-27.724,4.271-41.294.264-50.517-13.042-56.617-54.01-71.441C464.765,1079.937,484.52,1133.516,488.461,1148.7Z" fill="#f79c92"></path><g id="Group_2259" data-name="Group 2259"><path id="Path_10224" data-name="Path 10224" d="M531.831,1152.912c1.674-3.437,8.555,1.184,18.682,1.17,8.953-.014,14.16-2.727,16.116.594,1.3,2.2-4.074,13.16-16.126,12.789C535.226,1166.994,530.359,1155.94,531.831,1152.912Z" fill="#fff"></path><path id="Path_10225" data-name="Path 10225" d="M583.06,1119.062c-.046,2.952-1.9,5.32-4.143,5.285s-4.023-2.458-3.978-5.411,1.9-5.319,4.145-5.283S583.107,1116.109,583.06,1119.062Z" fill="#231f20"></path><path id="Path_10226" data-name="Path 10226" d="M592.017,1098.311c-2.628,1.263-4.016-1.5-19.662-1.221-5.692.1-5.292-6.724,1.4-6.493C587.568,1091.071,594.644,1097.047,592.017,1098.311Z" fill="#541c1c"></path><path id="Path_10227" data-name="Path 10227" d="M517.822,1118.048c-.046,2.951,1.735,5.376,3.977,5.411s4.1-2.333,4.144-5.285-1.736-5.376-3.976-5.41S517.868,1115.095,517.822,1118.048Z" fill="#231f20"></path><path id="Path_10228" data-name="Path 10228" d="M503.4,1097.843c2.585,1.344,13.374-2.772,29-2.007,5.685.278,5.495-6.318-1.2-6.533C511.863,1088.68,500.816,1096.5,503.4,1097.843Z" fill="#541c1c"></path><g id="Group_2258" data-name="Group 2258"><path id="Path_10229" data-name="Path 10229" d="M554.65,1135.57c.143-.679-3.968-2.509-4.161-.613C550.324,1136.59,554.5,1136.248,554.65,1135.57Z" fill="#e2695d"></path><g id="Group_2257" data-name="Group 2257"><path id="Path_10230" data-name="Path 10230" d="M558.836,1140.654a1.69,1.69,0,0,1,.888-2.224h0s.043-.017.176-.084h0c.135-.066.34-.172.587-.315h0a11.679,11.679,0,0,0,1.817-1.306h0a6.726,6.726,0,0,0,2.528-4.93h0c.058-1.136-.8-2.975-1.968-4.545h0a26.8,26.8,0,0,0-3.066-3.483h0c-2.006-2.048-1.993-4.812-2.02-6.414h0c.012-.768.075-1.284.08-1.329h0a1.692,1.692,0,0,1,1.889-1.471h0a1.689,1.689,0,0,1,1.471,1.886h0c.006,0-.044.362-.054.967h0c-.075,1.288.3,3.409.971,3.911h0a30.287,30.287,0,0,1,3.471,3.949h0c1.318,1.858,2.615,4.064,2.612,6.582h0a10.108,10.108,0,0,1-3.67,7.413h0a14.317,14.317,0,0,1-3.489,2.282h0a1.683,1.683,0,0,1-.693.138h0a1.693,1.693,0,0,1-1.53-1.027Z" fill="#e2695d"></path></g></g></g><path id="Path_10231" data-name="Path 10231" d="M594.689,1091.123s-6.885-31.425-39.5-31.57c-40.06-.178-71.828,53.282-71.828,53.282s-8.8-82.084,56.632-87.85C586.405,1020.9,594.689,1091.123,594.689,1091.123Z" fill="#b4d6db"></path></g><g id="Group_2263" data-name="Group 2263"><path id="Path_10232" data-name="Path 10232" d="M437.707,1188.977s13.9,2.863,38.128,17.185,64.97,17.969,80.054,10.613c16.37-7.98,28.477-20.652,33.834-19.756,8.977,1.5,5.944,21.983,11.02,25.963,15.536,12.178,19.541,32.084,16.942,36.68-5.115,9.053-19.257,29.393-73.668,32.047-56.442,2.753-128.17-8.936-148.026-28.6-14.025-13.893,12.085-34.1,18-40S430.746,1187.224,437.707,1188.977Z" fill="#217abf"></path><g id="Group_2261" data-name="Group 2261"><path id="Path_10233" data-name="Path 10233" d="M459.539,1207.106a1.225,1.225,0,0,1-.162-1.844h0a1.541,1.541,0,0,1,2.03-.149h0s.528.409,1.544,1.145h0c1.018.736,2.515,1.791,4.42,3.057h0a169.615,169.615,0,0,0,15.763,9.287h0c13.012,6.75,30.3,13.423,47.171,13.333h0c1.475-.007,2.947-.064,4.417-.179h0c33.4-2.6,44.19-13.828,45.244-14.98h0l.081-.09h0a1.537,1.537,0,0,1,2.014-.281h0a1.234,1.234,0,0,1,.3,1.829h0c-.208.287-11.077,13.334-47.4,16.131h0q-2.319.176-4.644.189h0c-35.4.093-70.652-27.406-70.779-27.448Z" fill="#25669d"></path></g><g id="Group_2262" data-name="Group 2262"><path id="Path_10234" data-name="Path 10234" d="M447.714,1242.014a32.634,32.634,0,0,1-8.6-6.445h0c-1.856-2.082-2.831-3.928-2.9-5.612h0a2.9,2.9,0,0,1,.708-2.071h0a3.06,3.06,0,0,1,2.22-.939h0c1.779,0,3.542.889,5.7,2.6h0c3.767,3.051,14.905,10.3,31.483,16.545h0a170.793,170.793,0,0,0,64.472,10.921h0q2.124-.054,4.283-.161h0c26.055-1.311,38.913-7.018,45.2-12.313h0c6.278-5.294,6.241-10.253,6.247-10.7h0l0-.076h0a1.436,1.436,0,0,1,1.459-1.4h0a1.433,1.433,0,0,1,1.523,1.328h0s0,.026,0,.075h0c.042.958-.179,6.886-7.214,12.791h0c-7.029,5.9-20.619,11.7-47.066,13.032h0q-2.2.106-4.363.164h0a174,174,0,0,1-65.686-11.126h0c-16.91-6.387-28.2-13.7-32.316-17.019h0c-1.843-1.522-3.3-1.973-3.658-1.92h0a1.056,1.056,0,0,0-.013.2h0c-.013.635.6,2.174,2.221,3.937h0a29.7,29.7,0,0,0,7.833,5.844h0c12.61,6.89,43.158,23.7,78.148,22.806h0a100.5,100.5,0,0,0,14.613-1.425h0a1.481,1.481,0,0,1,1.736,1.09h0a1.386,1.386,0,0,1-1.2,1.594h0a103.762,103.762,0,0,1-15.083,1.473h0c-36.071.9-67.081-16.3-79.752-23.188Z" fill="#25669d"></path></g></g></g><g id="Group_2268" data-name="Group 2268"><g id="Group_2265" data-name="Group 2265"><path id="Path_10235" data-name="Path 10235" d="M565.976,1511.1c-.016,0-69.2-.561-111.875-2.534h0c-14.26-.663-25.449-1.451-30.522-2.507h0a2,2,0,0,1-1.545-2.37h0a2,2,0,0,1,2.368-1.545h0c6.707,1.432,28.6,2.548,52.93,3.3h0c24.382.762,51.436,1.208,69.169,1.442h0c8.6.113,15.005.177,17.861.2h0l8.26-40.385c-2.759-.5-8.217-1.493-15.468-2.787h0c-10.668-1.907-25.194-4.469-40.622-7.091h0c-30.838-5.248-65.391-10.747-79.679-11.726h0l-2.527-.177.756-2.416c2.25-7.148,5.314-27.861,7.726-53.339h0c2.429-25.517,4.268-55.981,4.268-83.186h0q0-4.568-.07-9h0v0a2,2,0,0,1,1.968-2.032h0a2,2,0,0,1,2.03,1.965h0q.072,4.462.072,9.064h0c0,27.382-1.848,57.939-4.285,83.567h0c-2.236,23.394-4.909,42.539-7.227,51.752h0c32.449,2.863,135.73,21.83,135.788,21.834h0l2.006.368-9.737,47.613-1.645-.015Z" fill="#078895"></path></g><g id="Group_2266" data-name="Group 2266"><path id="Path_10236" data-name="Path 10236" d="M445.8,1445.489c-4.832-.488-13.236-.617-20.365-.615h0c-7.153,0-13.048.125-13.061.125h0l0,0a2,2,0,0,1-2.043-1.956h0a2,2,0,0,1,1.957-2.044h0c.008,0,5.946-.127,13.145-.127h0c7.2,0,15.6.118,20.764.637h0a2,2,0,0,1,1.789,2.188h0a2,2,0,0,1-1.987,1.8h0a1.946,1.946,0,0,1-.2-.011Z" fill="#078895"></path></g><g id="Group_2267" data-name="Group 2267"><path id="Path_10237" data-name="Path 10237" d="M600.948,1437.667a2,2,0,0,1-1.947-2.053h0c.071-2.786.106-6.683.106-11.4h0c0-18.874-.526-50.844-1.053-78.082h0c-.527-27.24-1.053-49.707-1.053-49.757h0v0a2,2,0,0,1,1.953-2.046h0a2,2,0,0,1,2.045,1.951h0c0,.009,2.106,90.07,2.106,127.932h0c0,4.734-.032,8.653-.1,11.5h0a2,2,0,0,1-2,1.949h-.051Z" fill="#078895"></path></g></g></g><g id="Group_2270" data-name="Group 2270"><path id="Path_10238" data-name="Path 10238" d="M1113.538,1773.549l186.738-75,83.162,113.493-172.168,100.2Z" fill="#984425"></path><path id="Path_10239" data-name="Path 10239" d="M1033.771,1638.289l-13.49,2.7,87.416,125.464,47.486-16.463Z" fill="#80381a"></path><path id="Path_10240" data-name="Path 10240" d="M1017.354,1628.449,1217,1586.143l77.9,90.7-193.576,68.321Z" fill="#723838"></path><path id="Path_10241" data-name="Path 10241" d="M1211.138,1666.045l160.665-44.27-71.526,76.776L1113.49,1773.6Z" fill="#692c0f"></path><path id="Path_10242" data-name="Path 10242" d="M1203.157,1652.616l7.98,13.429,160.665-44.27-5.249-10.5Z" fill="#a85035"></path><path id="Path_10243" data-name="Path 10243" d="M1099.6,1775.89l13.5-3.137-5.4-6.3Z" fill="#692c0f"></path><path id="Path_10244" data-name="Path 10244" d="M1017.083,1653.357l3.238-12.411,191.025,271.246-11.516,7.328Z" fill="#501e01"></path><path id="Path_10245" data-name="Path 10245" d="M1203.157,1652.616l7.98,13.429-199.525,219.773-9.383-11.359Z" fill="#501e01"></path><path id="Path_10246" data-name="Path 10246" d="M1011.612,1885.818l127.434-54.828-33.1-49.378Z" fill="#692c0f"></path><path id="Path_10247" data-name="Path 10247" d="M1013.61,1638.027l3.743-9.578,80.008,109.27,78.526-93.713,6.914,9.68-85.214,101.058Z" fill="#d8b129"></path><path id="Path_10248" data-name="Path 10248" d="M1097.588,1754.743l19.213-6.781,86.356-95.346,141.1-35.7,2.418-3.166L1182.8,1653.686Z" fill="#9e5959"></path><path id="Path_10249" data-name="Path 10249" d="M1175.888,1644.006l6.914,9.68,163.873-39.935-5.154-9.192Z" fill="#f7d116"></path><path id="Path_10250" data-name="Path 10250" d="M1033.1,1622.585l182.9-37.453S1245.544,1612.9,1252.3,1624l-89.906,24.073-61.637,72.3Z" fill="#d8e5ef"></path><path id="Path_10251" data-name="Path 10251" d="M1100.047,1734.513s-11.574-26.04-34.429-57.125c-21.41-29.121-37.214-43.938-37.214-43.938l4.692-10.865s19.19,17.52,41.238,46.917c21.483,28.645,27.163,46.425,27.163,46.425s28.151-52.1,65.809-71.348a16.56,16.56,0,0,1,3.248,5.791Z" fill="#b3b8bd"></path><path id="Path_10252" data-name="Path 10252" d="M1167.306,1644.579l166.313-40.268,1.092,1.869-158.822,37.825-5.334,6.364Z" fill="#cdd2d7"></path><path id="Path_10253" data-name="Path 10253" d="M1108.515,1724.407s15.7-25.519,27.06-38.607a209.746,209.746,0,0,1,26.668-25.435Z" fill="#8e9397"></path><path id="Path_10254" data-name="Path 10254" d="M1113.374,1773.73l54.666,76.969s15.44-61.68,50.506-88.843,106.326-29.738,106.326-29.738l-24.6-33.566Z" fill="#80381a"></path></g><g id="Group_2271" data-name="Group 2271"><path id="Path_10255" data-name="Path 10255" d="M832.13,1773.549l-186.738-75-83.162,113.493,172.168,100.2Z" fill="#984425"></path><path id="Path_10256" data-name="Path 10256" d="M911.9,1638.289l13.49,2.7-87.416,125.464-47.486-16.463Z" fill="#80381a"></path><path id="Path_10257" data-name="Path 10257" d="M928.315,1628.449l-199.651-42.307-77.9,90.7,193.576,68.321Z" fill="#723838"></path><path id="Path_10258" data-name="Path 10258" d="M734.53,1666.045l-160.665-44.27,71.526,76.776,186.786,75.05Z" fill="#692c0f"></path><path id="Path_10259" data-name="Path 10259" d="M742.511,1652.616l-7.98,13.429-160.665-44.27,5.249-10.5Z" fill="#a85035"></path><path id="Path_10260" data-name="Path 10260" d="M846.065,1775.89l-13.5-3.137,5.4-6.3Z" fill="#692c0f"></path><path id="Path_10261" data-name="Path 10261" d="M928.585,1653.357l-3.238-12.411L734.321,1912.192l11.516,7.328Z" fill="#501e01"></path><path id="Path_10262" data-name="Path 10262" d="M742.511,1652.616l-7.98,13.429,199.525,219.773,9.383-11.359Z" fill="#501e01"></path><path id="Path_10263" data-name="Path 10263" d="M934.056,1885.818,806.622,1830.99l33.1-49.378Z" fill="#692c0f"></path><path id="Path_10264" data-name="Path 10264" d="M932.058,1638.027l-3.743-9.578-80.008,109.27-78.526-93.713-6.914,9.68,85.214,101.058Z" fill="#d8b129"></path><path id="Path_10265" data-name="Path 10265" d="M848.08,1754.743l-19.213-6.781-86.357-95.346-141.1-35.7-2.418-3.166,163.873,39.935Z" fill="#9e5959"></path><path id="Path_10266" data-name="Path 10266" d="M769.78,1644.006l-6.914,9.68-163.873-39.935,5.154-9.192Z" fill="#f7d116"></path><path id="Path_10267" data-name="Path 10267" d="M912.572,1622.585l-182.9-37.453s-29.549,27.765-36.3,38.868l89.906,24.073,61.637,72.3Z" fill="#d8e5ef"></path><path id="Path_10268" data-name="Path 10268" d="M845.621,1734.513s11.574-26.04,34.429-57.125c21.41-29.121,37.214-43.938,37.214-43.938l-4.692-10.865s-19.19,17.52-41.238,46.917c-21.483,28.645-27.163,46.425-27.163,46.425s-28.151-52.1-65.809-71.348a16.56,16.56,0,0,0-3.248,5.791Z" fill="#b3b8bd"></path><path id="Path_10269" data-name="Path 10269" d="M778.362,1644.579,612.05,1604.312l-1.092,1.869,158.822,37.825,5.334,6.364Z" fill="#cdd2d7"></path><path id="Path_10270" data-name="Path 10270" d="M837.153,1724.407s-15.7-25.519-27.06-38.607a209.748,209.748,0,0,0-26.668-25.435Z" fill="#8e9397"></path><path id="Path_10271" data-name="Path 10271" d="M832.294,1773.73,777.628,1850.7s-15.44-61.68-50.506-88.843S620.8,1732.118,620.8,1732.118l24.6-33.566Z" fill="#80381a"></path></g></g></g></svg>